<svg width="235" height="168" viewBox="0 0 235 168" fill="none" xmlns="http://www.w3.org/2000/svg">
<rect x="60.5" y="2" width="118" height="94" rx="8" fill="#EBF1FF"/>
<g filter="url(#filter0_d_2048_15058)">
<rect x="87.5" y="22" width="60" height="60" rx="8" fill="white"/>
</g>
<rect x="101.5" y="36" width="32" height="32" rx="8" fill="#3A74FE"/>
<path d="M108.5 56.5H110.446V57H108.5V56.5Z" stroke="white" stroke-width="2" stroke-linecap="round" stroke-linejoin="round"/>
<path d="M113.365 56.5H115.797V57H113.365V56.5Z" stroke="white" stroke-width="2" stroke-linecap="round" stroke-linejoin="round"/>
<path d="M121.149 57H118.716V56.5H121.149V57Z" stroke="white" stroke-width="2" stroke-linecap="round" stroke-linejoin="round"/>
<path d="M126.5 57H124.068V56.5H126.5V57Z" stroke="white" stroke-width="2" stroke-linecap="round" stroke-linejoin="round"/>
<path d="M126.5 53H124.068V53.5H126.5V53Z" stroke="white" stroke-width="2" stroke-linecap="round" stroke-linejoin="round"/>
<path d="M126.5 49.5H124.068V50H126.5V49.5Z" stroke="white" stroke-width="2" stroke-linecap="round" stroke-linejoin="round"/>
<path d="M126.5 46H124.068V46.5H126.5V46Z" stroke="white" stroke-width="2" stroke-linecap="round" stroke-linejoin="round"/>
<path d="M121.149 53H118.716V53.5H121.149V53Z" stroke="white" stroke-width="2" stroke-linecap="round" stroke-linejoin="round"/>
<path d="M113.365 53.5H115.797V53H113.365V53.5Z" stroke="white" stroke-width="2" stroke-linecap="round" stroke-linejoin="round"/>
<path d="M113.365 49.5H115.797V50H113.365V49.5Z" stroke="white" stroke-width="2" stroke-linecap="round" stroke-linejoin="round"/>
<g filter="url(#filter1_d_2048_15058)">
<rect x="17.5" y="30" width="60" height="60" rx="8" fill="white"/>
</g>
<rect x="31.5" y="44" width="32" height="32" rx="8" fill="#3A74FE"/>
<path d="M45.0526 63.8333C45.0526 64.4964 44.7865 65.1323 44.3127 65.6011C43.8389 66.0699 43.1963 66.3333 42.5263 66.3333C41.8563 66.3333 41.2137 66.0699 40.7399 65.6011C40.2662 65.1323 40 64.4964 40 63.8333C40 63.1703 40.2662 62.5344 40.7399 62.0656C41.2137 61.5967 41.8563 61.3333 42.5263 61.3333C43.1963 61.3333 43.8389 61.5967 44.3127 62.0656C44.7865 62.5344 45.0526 63.1703 45.0526 63.8333ZM45.0526 63.8333V53H53.4737V59.6667M45.0526 56.3333H53.4737M50.9474 65.5H56M53.4737 63V68" stroke="white" stroke-width="2" stroke-linecap="round" stroke-linejoin="round"/>
<g filter="url(#filter2_d_2048_15058)">
<rect x="157.5" y="8" width="60" height="60" rx="8" fill="white"/>
</g>
<rect x="171.5" y="22" width="32" height="32" rx="8" fill="#3A74FE"/>
<path d="M189.5 29V33C189.5 33.2652 189.605 33.5196 189.793 33.7071C189.98 33.8946 190.235 34 190.5 34H194.5M189.5 29H182.5C181.97 29 181.461 29.2107 181.086 29.5858C180.711 29.9609 180.5 30.4696 180.5 31V45C180.5 45.5304 180.711 46.0391 181.086 46.4142C181.461 46.7893 181.97 47 182.5 47H192.5C193.03 47 193.539 46.7893 193.914 46.4142C194.289 46.0391 194.5 45.5304 194.5 45V34M189.5 29L194.5 34M184.5 43H190.5M184.5 39H190.5" stroke="white" stroke-width="2" stroke-linecap="round" stroke-linejoin="round"/>
<path d="M47.75 127.844C47.75 128.443 47.8828 129.018 48.1484 129.57C48.4193 130.122 48.8073 130.615 49.3125 131.047C49.8229 131.479 50.4271 131.812 51.125 132.047L50.375 133.203C49.5938 132.932 48.9141 132.536 48.3359 132.016C47.763 131.495 47.3229 130.888 47.0156 130.195C46.7083 130.956 46.2552 131.62 45.6562 132.188C45.0625 132.755 44.3594 133.182 43.5469 133.469L42.75 132.312C43.4688 132.068 44.0911 131.716 44.6172 131.258C45.1432 130.799 45.5469 130.276 45.8281 129.688C46.1146 129.094 46.2604 128.474 46.2656 127.828V127.453H43.1875V126.25H50.7656V127.453H47.75V127.844ZM53.8594 128.922H55.8906V130.172H53.8594V133.766H52.375V125.328H53.8594V128.922ZM53.8594 139.328H52.375V135.656H44.6094V134.453H53.8594V139.328ZM60.5625 125.969C61.1667 125.964 61.7214 126.07 62.2266 126.289C62.737 126.508 63.1562 126.818 63.4844 127.219C63.8177 127.615 64.0365 128.073 64.1406 128.594H66.875V125.328H68.3594V132.844H66.875V129.812H64.1484C64.0495 130.344 63.8333 130.812 63.5 131.219C63.1719 131.625 62.7526 131.94 62.2422 132.164C61.737 132.388 61.1771 132.5 60.5625 132.5C59.8542 132.5 59.2214 132.362 58.6641 132.086C58.1068 131.805 57.6719 131.417 57.3594 130.922C57.0469 130.422 56.8906 129.854 56.8906 129.219C56.8906 128.589 57.0469 128.026 57.3594 127.531C57.6771 127.036 58.1146 126.651 58.6719 126.375C59.2292 126.099 59.8594 125.964 60.5625 125.969ZM60.5625 127.203C60.125 127.203 59.7344 127.289 59.3906 127.461C59.0521 127.628 58.7865 127.865 58.5938 128.172C58.4062 128.474 58.3125 128.823 58.3125 129.219C58.3125 129.615 58.4062 129.966 58.5938 130.273C58.7865 130.581 59.0521 130.82 59.3906 130.992C59.7344 131.164 60.125 131.25 60.5625 131.25C60.9896 131.25 61.3698 131.164 61.7031 130.992C62.0417 130.82 62.3047 130.581 62.4922 130.273C62.6849 129.966 62.7812 129.615 62.7812 129.219C62.7812 128.823 62.6875 128.474 62.5 128.172C62.3125 127.865 62.0495 127.628 61.7109 127.461C61.3724 127.289 60.9896 127.203 60.5625 127.203ZM60.7031 135.141H66.875V133.516H68.3594V139.156H59.2344V133.516H60.7031V135.141ZM66.875 137.938V136.312H60.7031V137.938H66.875ZM81.5156 128.562H83.5625V129.781H81.5156V132.984H80.0312V125.281H81.5156V128.562ZM81.5156 136.891H73.9531V138.062H82V139.188H72.5V135.844H80.0469V134.75H72.4688V133.641H81.5156V136.891ZM78.875 127.688H70.5312V126.516H73.9688V125.203H75.4531V126.516H78.875V127.688ZM74.7031 128.219C75.3802 128.219 75.974 128.312 76.4844 128.5C77 128.682 77.3958 128.948 77.6719 129.297C77.9531 129.641 78.0938 130.047 78.0938 130.516C78.0938 130.984 77.9531 131.391 77.6719 131.734C77.3958 132.078 77.0026 132.341 76.4922 132.523C75.9818 132.706 75.3854 132.797 74.7031 132.797C74.0156 132.797 73.4141 132.706 72.8984 132.523C72.388 132.341 71.9922 132.078 71.7109 131.734C71.4349 131.391 71.2969 130.984 71.2969 130.516C71.2969 130.047 71.4375 129.641 71.7188 129.297C72 128.948 72.3958 128.682 72.9062 128.5C73.4219 128.312 74.0208 128.219 74.7031 128.219ZM74.7031 129.281C74.3073 129.281 73.9583 129.333 73.6562 129.438C73.3594 129.536 73.1302 129.68 72.9688 129.867C72.8073 130.049 72.7292 130.266 72.7344 130.516C72.7292 130.885 72.9036 131.18 73.2578 131.398C73.6172 131.612 74.099 131.719 74.7031 131.719C75.3073 131.719 75.7891 131.612 76.1484 131.398C76.513 131.185 76.6979 130.891 76.7031 130.516C76.6979 130.266 76.612 130.049 76.4453 129.867C76.2786 129.68 76.0443 129.536 75.7422 129.438C75.4453 129.333 75.099 129.281 74.7031 129.281ZM96.2656 127.984H94.8281V134.508C95.4271 134.466 96.1042 134.401 96.8594 134.312L96.9375 135.391C95.6354 135.604 94.2812 135.747 92.875 135.82C91.4688 135.888 89.9271 135.927 88.25 135.938L88.0781 134.703L89.8594 134.688V127.984H88.4219V126.766H96.2656V127.984ZM99.1562 130.844H101.406V132.062H99.1562V139.328H97.6719V125.328H99.1562V130.844ZM91.2969 134.664C91.9948 134.648 92.6927 134.625 93.3906 134.594V127.984H91.2969V134.664ZM106.047 125.797C106.745 125.802 107.37 125.94 107.922 126.211C108.479 126.477 108.917 126.849 109.234 127.328C109.552 127.802 109.714 128.339 109.719 128.938C109.714 129.542 109.552 130.081 109.234 130.555C108.917 131.029 108.479 131.398 107.922 131.664C107.37 131.93 106.745 132.062 106.047 132.062C105.344 132.062 104.711 131.93 104.148 131.664C103.591 131.398 103.154 131.029 102.836 130.555C102.518 130.081 102.359 129.542 102.359 128.938C102.359 128.339 102.518 127.802 102.836 127.328C103.154 126.849 103.591 126.477 104.148 126.211C104.711 125.94 105.344 125.802 106.047 125.797ZM106.047 127.047C105.62 127.042 105.234 127.117 104.891 127.273C104.552 127.43 104.286 127.654 104.094 127.945C103.901 128.232 103.807 128.562 103.812 128.938C103.807 129.318 103.898 129.654 104.086 129.945C104.279 130.237 104.544 130.464 104.883 130.625C105.227 130.781 105.615 130.859 106.047 130.859C106.474 130.859 106.857 130.779 107.195 130.617C107.534 130.456 107.799 130.232 107.992 129.945C108.185 129.654 108.281 129.318 108.281 128.938C108.281 128.562 108.185 128.232 107.992 127.945C107.799 127.654 107.531 127.43 107.188 127.273C106.849 127.117 106.469 127.042 106.047 127.047ZM113.688 132.453H112.203V125.328H113.688V132.453ZM113.688 136.625H105.969V137.969H114.156V139.156H104.531V135.516H112.219V134.281H104.484V133.094H113.688V136.625ZM127.5 139.359H126.016V125.328H127.5V139.359ZM120.016 126.375C120.708 126.375 121.328 126.578 121.875 126.984C122.422 127.385 122.849 127.958 123.156 128.703C123.469 129.443 123.625 130.302 123.625 131.281C123.625 132.266 123.469 133.13 123.156 133.875C122.849 134.62 122.422 135.195 121.875 135.602C121.328 136.003 120.708 136.203 120.016 136.203C119.312 136.203 118.688 136.003 118.141 135.602C117.594 135.195 117.164 134.622 116.852 133.883C116.544 133.138 116.391 132.271 116.391 131.281C116.391 130.297 116.544 129.435 116.852 128.695C117.164 127.951 117.594 127.378 118.141 126.977C118.688 126.576 119.312 126.375 120.016 126.375ZM120.016 127.703C119.583 127.703 119.201 127.849 118.867 128.141C118.539 128.432 118.284 128.849 118.102 129.391C117.919 129.927 117.828 130.557 117.828 131.281C117.828 132.01 117.919 132.646 118.102 133.188C118.284 133.729 118.539 134.146 118.867 134.438C119.201 134.729 119.583 134.875 120.016 134.875C120.443 134.875 120.82 134.729 121.148 134.438C121.477 134.146 121.732 133.729 121.914 133.188C122.096 132.646 122.188 132.01 122.188 131.281C122.188 130.557 122.096 129.927 121.914 129.391C121.732 128.849 121.477 128.432 121.148 128.141C120.82 127.849 120.443 127.703 120.016 127.703ZM136.625 135.156H138.812V133.531H140.188V139.156H135.234V133.531H136.625V135.156ZM138.812 138V136.281H136.625V138H138.812ZM144.25 134.578C144.25 135.083 144.344 135.57 144.531 136.039C144.719 136.508 145.003 136.927 145.383 137.297C145.768 137.661 146.24 137.943 146.797 138.141L146.031 139.266C145.417 139.031 144.898 138.698 144.477 138.266C144.06 137.839 143.737 137.336 143.508 136.758C143.268 137.32 142.938 137.818 142.516 138.25C142.099 138.682 141.599 139.021 141.016 139.266L140.266 138.141C140.807 137.917 141.266 137.617 141.641 137.242C142.021 136.862 142.305 136.443 142.492 135.984C142.685 135.521 142.781 135.052 142.781 134.578V133.438H144.25V134.578ZM137.516 125.922C138.125 125.922 138.682 126.031 139.188 126.25C139.693 126.464 140.109 126.768 140.438 127.164C140.771 127.56 140.99 128.016 141.094 128.531H143.828V125.328H145.312V132.75H143.828V129.75H141.102C141.003 130.281 140.786 130.747 140.453 131.148C140.125 131.549 139.706 131.859 139.195 132.078C138.69 132.297 138.13 132.406 137.516 132.406C136.807 132.406 136.174 132.271 135.617 132C135.06 131.724 134.625 131.341 134.312 130.852C134 130.357 133.844 129.792 133.844 129.156C133.844 128.531 134 127.974 134.312 127.484C134.625 126.99 135.06 126.607 135.617 126.336C136.174 126.06 136.807 125.922 137.516 125.922ZM137.516 127.156C137.078 127.156 136.688 127.242 136.344 127.414C136.005 127.581 135.74 127.815 135.547 128.117C135.359 128.419 135.266 128.766 135.266 129.156C135.266 129.552 135.359 129.904 135.547 130.211C135.74 130.518 136.005 130.76 136.344 130.938C136.688 131.109 137.078 131.198 137.516 131.203C137.943 131.198 138.323 131.109 138.656 130.938C138.995 130.76 139.258 130.518 139.445 130.211C139.638 129.904 139.734 129.552 139.734 129.156C139.734 128.766 139.638 128.419 139.445 128.117C139.258 127.815 138.995 127.581 138.656 127.414C138.323 127.242 137.943 127.156 137.516 127.156ZM150.516 135.203H157.094V133.719H158.578V139.156H149.047V133.719H150.516V135.203ZM157.094 137.969V136.359H150.516V137.969H157.094ZM160.234 132.844H147.469V131.609H160.234V132.844ZM154.609 126.078C154.609 126.604 154.831 127.117 155.273 127.617C155.721 128.112 156.32 128.536 157.07 128.891C157.826 129.24 158.646 129.469 159.531 129.578L159 130.75C157.854 130.589 156.82 130.253 155.898 129.742C154.982 129.232 154.299 128.609 153.852 127.875C153.404 128.615 152.719 129.24 151.797 129.75C150.88 130.255 149.854 130.589 148.719 130.75L148.156 129.578C149.052 129.464 149.878 129.234 150.633 128.891C151.388 128.547 151.987 128.128 152.43 127.633C152.872 127.138 153.094 126.62 153.094 126.078V125.484H154.609V126.078ZM172.922 139.328H171.438V125.328H172.922V139.328ZM163.625 134.484C165.917 134.469 168.062 134.255 170.062 133.844L170.266 135.094C169.078 135.333 167.917 135.505 166.781 135.609C165.646 135.714 164.495 135.766 163.328 135.766H162.156V126.688H163.625V134.484ZM186.031 130.75H188.281V131.969H186.031V139.359H184.547V125.328H186.031V130.75ZM182.266 127.875H177.203V134.641C178.443 134.635 179.531 134.599 180.469 134.531C181.411 134.464 182.359 134.344 183.312 134.172L183.5 135.422C182.536 135.594 181.589 135.714 180.656 135.781C179.729 135.844 178.656 135.875 177.438 135.875H176.844H175.719V126.672H182.266V127.875ZM190.547 138.109C190.349 138.109 190.161 138.06 189.984 137.961C189.812 137.862 189.677 137.727 189.578 137.555C189.479 137.383 189.432 137.198 189.438 137C189.432 136.802 189.479 136.617 189.578 136.445C189.677 136.273 189.812 136.138 189.984 136.039C190.161 135.94 190.349 135.891 190.547 135.891C190.74 135.891 190.922 135.94 191.094 136.039C191.266 136.138 191.401 136.273 191.5 136.445C191.604 136.617 191.656 136.802 191.656 137C191.656 137.198 191.604 137.383 191.5 137.555C191.401 137.727 191.266 137.862 191.094 137.961C190.922 138.06 190.74 138.109 190.547 138.109Z" fill="#5C5C5C"/>
<path d="M45.3262 154.236H44.0684V159.944C44.5924 159.908 45.1849 159.851 45.8457 159.773L45.9141 160.717C44.7747 160.904 43.5898 161.029 42.3594 161.093C41.1289 161.152 39.7799 161.186 38.3125 161.195L38.1621 160.115L39.7207 160.102V154.236H38.4629V153.17H45.3262V154.236ZM47.8555 156.738H49.8242V157.805H47.8555V164.162H46.5566V151.912H47.8555V156.738ZM40.9785 160.081C41.5892 160.067 42.1999 160.047 42.8105 160.02V154.236H40.9785V160.081ZM53.8848 152.322C54.4954 152.327 55.0423 152.448 55.5254 152.685C56.013 152.917 56.3958 153.243 56.6738 153.662C56.9518 154.077 57.0931 154.546 57.0977 155.07C57.0931 155.599 56.9518 156.071 56.6738 156.485C56.3958 156.9 56.013 157.224 55.5254 157.456C55.0423 157.688 54.4954 157.805 53.8848 157.805C53.2695 157.805 52.7158 157.688 52.2236 157.456C51.736 157.224 51.3532 156.9 51.0752 156.485C50.7972 156.071 50.6582 155.599 50.6582 155.07C50.6582 154.546 50.7972 154.077 51.0752 153.662C51.3532 153.243 51.736 152.917 52.2236 152.685C52.7158 152.448 53.2695 152.327 53.8848 152.322ZM53.8848 153.416C53.5111 153.411 53.1738 153.478 52.873 153.614C52.5768 153.751 52.3444 153.947 52.1758 154.202C52.0072 154.453 51.9251 154.742 51.9297 155.07C51.9251 155.403 52.0049 155.697 52.1689 155.952C52.3376 156.207 52.57 156.406 52.8662 156.547C53.167 156.684 53.5065 156.752 53.8848 156.752C54.2585 156.752 54.5934 156.681 54.8896 156.54C55.1859 156.399 55.4183 156.203 55.5869 155.952C55.7555 155.697 55.8398 155.403 55.8398 155.07C55.8398 154.742 55.7555 154.453 55.5869 154.202C55.4183 153.947 55.1836 153.751 54.8828 153.614C54.5866 153.478 54.2539 153.411 53.8848 153.416ZM60.5703 158.146H59.2715V151.912H60.5703V158.146ZM60.5703 161.797H53.8164V162.973H60.9805V164.012H52.5586V160.826H59.2852V159.746H52.5176V158.707H60.5703V161.797ZM68.0898 152.117C69.0104 152.117 69.7965 152.199 70.4482 152.363C71.1045 152.523 71.6035 152.76 71.9453 153.074C72.2917 153.389 72.4648 153.771 72.4648 154.223C72.4648 154.674 72.2917 155.059 71.9453 155.378C71.6035 155.692 71.1045 155.932 70.4482 156.096C69.7965 156.26 69.0104 156.342 68.0898 156.342C67.1693 156.342 66.3809 156.26 65.7246 156.096C65.0729 155.932 64.5739 155.692 64.2275 155.378C63.8857 155.059 63.7148 154.674 63.7148 154.223C63.7148 153.771 63.8857 153.389 64.2275 153.074C64.5739 152.76 65.0729 152.523 65.7246 152.363C66.3809 152.199 67.1693 152.117 68.0898 152.117ZM68.0898 153.074C67.1146 153.074 66.3649 153.174 65.8408 153.375C65.3167 153.576 65.0592 153.858 65.0684 154.223C65.0638 154.596 65.319 154.881 65.834 155.077C66.3535 155.273 67.1055 155.371 68.0898 155.371C69.0697 155.371 69.8193 155.273 70.3389 155.077C70.863 154.881 71.125 154.596 71.125 154.223C71.125 153.858 70.8607 153.576 70.332 153.375C69.8079 153.174 69.0605 153.074 68.0898 153.074ZM73.6816 158.133H62.5117V157.094H73.6816V158.133ZM72.2734 161.947H65.1367V163.041H72.6152V164.039H63.8652V161.004H70.9883V160.047H63.8516V159.076H72.2734V161.947ZM84.2773 155.275H86.9434V151.926H88.2422V160.854H86.9434V156.314H84.2773V158.707H78.5898V152.951H84.2773V155.275ZM79.875 157.682H83.0059V154.004H79.875V157.682ZM88.5703 163.902H80.2852V160.02H81.584V162.85H88.5703V163.902ZM100.355 164.189H99.0566V157.381H96.5273V156.314H99.0566V151.912H100.355V164.189ZM94.5039 155.357C94.5039 156.046 94.6383 156.734 94.9072 157.422C95.1761 158.11 95.5521 158.728 96.0352 159.274C96.5228 159.817 97.0742 160.225 97.6895 160.498L96.9102 161.537C96.2129 161.2 95.5977 160.699 95.0645 160.033C94.5358 159.363 94.1348 158.604 93.8613 157.757C93.5833 158.659 93.1755 159.468 92.6377 160.184C92.0999 160.895 91.4824 161.428 90.7852 161.783L89.9922 160.771C90.6029 160.48 91.1497 160.049 91.6328 159.479C92.1204 158.905 92.501 158.258 92.7744 157.538C93.0479 156.813 93.1868 156.087 93.1914 155.357V154.209H90.4844V153.143H97.2246V154.209H94.5039V155.357ZM109.037 152.473C109.566 152.468 110.051 152.562 110.493 152.753C110.94 152.944 111.307 153.215 111.594 153.566C111.885 153.913 112.077 154.314 112.168 154.77H114.561V151.912H115.859V158.488H114.561V155.836H112.175C112.088 156.301 111.899 156.711 111.607 157.066C111.32 157.422 110.953 157.698 110.507 157.894C110.065 158.09 109.575 158.188 109.037 158.188C108.417 158.188 107.864 158.067 107.376 157.825C106.888 157.579 106.508 157.24 106.234 156.807C105.961 156.369 105.824 155.872 105.824 155.316C105.824 154.765 105.961 154.273 106.234 153.84C106.512 153.407 106.895 153.07 107.383 152.828C107.87 152.587 108.422 152.468 109.037 152.473ZM109.037 153.553C108.654 153.553 108.312 153.628 108.012 153.778C107.715 153.924 107.483 154.132 107.314 154.4C107.15 154.665 107.068 154.97 107.068 155.316C107.068 155.663 107.15 155.97 107.314 156.239C107.483 156.508 107.715 156.718 108.012 156.868C108.312 157.019 108.654 157.094 109.037 157.094C109.411 157.094 109.743 157.019 110.035 156.868C110.331 156.718 110.562 156.508 110.726 156.239C110.894 155.97 110.979 155.663 110.979 155.316C110.979 154.97 110.896 154.665 110.732 154.4C110.568 154.132 110.338 153.924 110.042 153.778C109.746 153.628 109.411 153.553 109.037 153.553ZM109.16 160.498H114.561V159.076H115.859V164.012H107.875V159.076H109.16V160.498ZM114.561 162.945V161.523H109.16V162.945H114.561ZM128.957 162.699H117.746V161.605H122.682V159.459H119.113V155.562H126.305V153.84H119.086V152.773H127.59V156.602H120.398V158.393H127.877V159.459H123.967V161.605H128.957V162.699ZM139.771 158.789H131.24V153.006H139.662V154.072H132.525V157.723H139.771V158.789ZM141.057 162.549H129.846V161.469H141.057V162.549ZM148.002 154.988H141.918V153.936H144.324V152.268H145.609V153.936H148.002V154.988ZM144.967 155.727C145.482 155.727 145.94 155.847 146.341 156.089C146.742 156.326 147.056 156.659 147.284 157.087C147.512 157.511 147.628 157.996 147.633 158.543C147.628 159.094 147.512 159.587 147.284 160.02C147.056 160.448 146.742 160.783 146.341 161.024C145.94 161.266 145.482 161.387 144.967 161.387C144.461 161.387 144.005 161.266 143.6 161.024C143.194 160.783 142.877 160.446 142.649 160.013C142.422 159.58 142.31 159.09 142.314 158.543C142.31 158.001 142.422 157.515 142.649 157.087C142.877 156.659 143.194 156.326 143.6 156.089C144.005 155.847 144.461 155.727 144.967 155.727ZM144.967 156.807C144.675 156.807 144.415 156.882 144.188 157.032C143.96 157.178 143.782 157.383 143.654 157.647C143.527 157.912 143.463 158.21 143.463 158.543C143.463 158.885 143.527 159.188 143.654 159.452C143.782 159.712 143.96 159.915 144.188 160.061C144.415 160.206 144.675 160.279 144.967 160.279C145.258 160.279 145.518 160.206 145.746 160.061C145.979 159.915 146.159 159.712 146.286 159.452C146.418 159.188 146.484 158.885 146.484 158.543C146.484 158.21 146.418 157.912 146.286 157.647C146.159 157.383 145.979 157.178 145.746 157.032C145.514 156.882 145.254 156.807 144.967 156.807ZM152.432 164.162H151.201V158.078H149.793V163.588H148.562V152.186H149.793V157.012H151.201V151.912H152.432V164.162ZM168.633 159.869H163.656V164.148H162.385V159.869H157.463V158.816H168.633V159.869ZM167.58 153.676H163.793C163.798 154.173 163.989 154.646 164.367 155.098C164.75 155.544 165.263 155.925 165.905 156.239C166.548 156.549 167.252 156.757 168.018 156.861L167.539 157.887C166.869 157.782 166.238 157.606 165.646 157.36C165.053 157.11 164.534 156.8 164.087 156.431C163.64 156.057 163.294 155.64 163.048 155.18C162.679 155.872 162.093 156.458 161.291 156.937C160.493 157.41 159.591 157.727 158.584 157.887L158.092 156.861C158.848 156.757 159.546 156.549 160.184 156.239C160.826 155.925 161.339 155.544 161.722 155.098C162.104 154.646 162.303 154.173 162.316 153.676H158.502V152.637H167.58V153.676ZM173.295 155.262C173.295 155.927 173.388 156.586 173.575 157.237C173.762 157.884 174.04 158.477 174.409 159.015C174.778 159.552 175.227 159.983 175.756 160.307L175.031 161.305C174.475 160.972 173.999 160.519 173.603 159.944C173.206 159.366 172.901 158.709 172.687 157.976C172.454 158.773 172.126 159.486 171.702 160.115C171.283 160.74 170.784 161.227 170.205 161.578L169.398 160.607C169.959 160.27 170.438 159.824 170.834 159.268C171.23 158.707 171.529 158.087 171.729 157.408C171.935 156.725 172.037 156.027 172.037 155.316V153.033H173.295V155.262ZM180.104 164.162H178.859V151.912H180.104V164.162ZM177.561 163.561H176.33V157.299H174.43V156.219H176.33V152.145H177.561V163.561ZM192.873 162.631H181.662V161.551H184.342V158.352C183.831 158.069 183.435 157.711 183.152 157.278C182.87 156.845 182.729 156.36 182.729 155.822C182.729 155.189 182.92 154.631 183.303 154.147C183.69 153.664 184.226 153.291 184.909 153.026C185.593 152.757 186.37 152.623 187.24 152.623C188.115 152.623 188.895 152.757 189.578 153.026C190.266 153.291 190.802 153.664 191.185 154.147C191.572 154.631 191.766 155.189 191.766 155.822C191.766 156.355 191.629 156.836 191.355 157.265C191.082 157.688 190.695 158.042 190.193 158.324V161.551H192.873V162.631ZM187.24 153.662C186.602 153.662 186.037 153.751 185.545 153.929C185.053 154.102 184.67 154.353 184.396 154.681C184.123 155.004 183.986 155.385 183.986 155.822C183.986 156.255 184.123 156.636 184.396 156.964C184.67 157.292 185.053 157.547 185.545 157.729C186.037 157.907 186.602 157.996 187.24 157.996C187.874 157.996 188.437 157.907 188.929 157.729C189.425 157.547 189.813 157.292 190.091 156.964C190.369 156.636 190.508 156.255 190.508 155.822C190.508 155.389 190.369 155.009 190.091 154.681C189.817 154.353 189.432 154.102 188.936 153.929C188.443 153.751 187.878 153.662 187.24 153.662ZM188.881 161.551V158.823C188.384 158.946 187.837 159.008 187.24 159.008C186.666 159.008 186.128 158.949 185.627 158.83V161.551H188.881ZM195.895 160.143H194.541L194.418 153.102H196.018L195.895 160.143ZM195.225 163.096C195.051 163.096 194.887 163.052 194.732 162.966C194.582 162.879 194.464 162.761 194.377 162.61C194.29 162.46 194.249 162.298 194.254 162.125C194.249 161.952 194.29 161.79 194.377 161.64C194.464 161.489 194.582 161.371 194.732 161.284C194.887 161.198 195.051 161.154 195.225 161.154C195.393 161.154 195.553 161.198 195.703 161.284C195.854 161.371 195.972 161.489 196.059 161.64C196.15 161.79 196.195 161.952 196.195 162.125C196.195 162.298 196.15 162.46 196.059 162.61C195.972 162.761 195.854 162.879 195.703 162.966C195.553 163.052 195.393 163.096 195.225 163.096Z" fill="#777777"/>
<defs>
<filter id="filter0_d_2048_15058" x="75.5" y="14" width="84" height="84" filterUnits="userSpaceOnUse" color-interpolation-filters="sRGB">
<feFlood flood-opacity="0" result="BackgroundImageFix"/>
<feColorMatrix in="SourceAlpha" type="matrix" values="0 0 0 0 0 0 0 0 0 0 0 0 0 0 0 0 0 0 127 0" result="hardAlpha"/>
<feMorphology radius="4" operator="dilate" in="SourceAlpha" result="effect1_dropShadow_2048_15058"/>
<feOffset dy="4"/>
<feGaussianBlur stdDeviation="4"/>
<feComposite in2="hardAlpha" operator="out"/>
<feColorMatrix type="matrix" values="0 0 0 0 0 0 0 0 0 0 0 0 0 0 0 0 0 0 0.04 0"/>
<feBlend mode="normal" in2="BackgroundImageFix" result="effect1_dropShadow_2048_15058"/>
<feBlend mode="normal" in="SourceGraphic" in2="effect1_dropShadow_2048_15058" result="shape"/>
</filter>
<filter id="filter1_d_2048_15058" x="5.5" y="22" width="84" height="84" filterUnits="userSpaceOnUse" color-interpolation-filters="sRGB">
<feFlood flood-opacity="0" result="BackgroundImageFix"/>
<feColorMatrix in="SourceAlpha" type="matrix" values="0 0 0 0 0 0 0 0 0 0 0 0 0 0 0 0 0 0 127 0" result="hardAlpha"/>
<feMorphology radius="4" operator="dilate" in="SourceAlpha" result="effect1_dropShadow_2048_15058"/>
<feOffset dy="4"/>
<feGaussianBlur stdDeviation="4"/>
<feComposite in2="hardAlpha" operator="out"/>
<feColorMatrix type="matrix" values="0 0 0 0 0 0 0 0 0 0 0 0 0 0 0 0 0 0 0.04 0"/>
<feBlend mode="normal" in2="BackgroundImageFix" result="effect1_dropShadow_2048_15058"/>
<feBlend mode="normal" in="SourceGraphic" in2="effect1_dropShadow_2048_15058" result="shape"/>
</filter>
<filter id="filter2_d_2048_15058" x="145.5" y="0" width="84" height="84" filterUnits="userSpaceOnUse" color-interpolation-filters="sRGB">
<feFlood flood-opacity="0" result="BackgroundImageFix"/>
<feColorMatrix in="SourceAlpha" type="matrix" values="0 0 0 0 0 0 0 0 0 0 0 0 0 0 0 0 0 0 127 0" result="hardAlpha"/>
<feMorphology radius="4" operator="dilate" in="SourceAlpha" result="effect1_dropShadow_2048_15058"/>
<feOffset dy="4"/>
<feGaussianBlur stdDeviation="4"/>
<feComposite in2="hardAlpha" operator="out"/>
<feColorMatrix type="matrix" values="0 0 0 0 0 0 0 0 0 0 0 0 0 0 0 0 0 0 0.04 0"/>
<feBlend mode="normal" in2="BackgroundImageFix" result="effect1_dropShadow_2048_15058"/>
<feBlend mode="normal" in="SourceGraphic" in2="effect1_dropShadow_2048_15058" result="shape"/>
</filter>
</defs>
</svg>
